<?xml version="1.0" encoding="UTF-8" standalone="no"?><!DOCTYPE svg PUBLIC "-//W3C//DTD SVG 1.1//EN" "http://www.w3.org/Graphics/SVG/1.1/DTD/svg11.dtd"><svg width="100%" height="100%" viewBox="0 0 2250 2250" version="1.1" xmlns="http://www.w3.org/2000/svg" xmlns:xlink="http://www.w3.org/1999/xlink" xml:space="preserve" xmlns:serif="http://www.serif.com/" style="fill-rule:evenodd;clip-rule:evenodd;stroke-linejoin:round;stroke-miterlimit:2;"><g id="Trash"><circle cx="1125" cy="1125" r="1125" style="fill:#ff3b30;"/><path d="M1312.5,703.125c-0,-51.777 -41.972,-93.75 -93.75,-93.75l-187.5,-0c-51.777,-0 -93.75,41.973 -93.75,93.75l-140.625,-0c-25.888,-0 -46.875,20.987 -46.875,46.875l750,-0c-0,-25.888 -20.986,-46.875 -46.875,-46.875l-140.625,-0Zm-518.092,90.03l659.547,-0l-32.902,788.407c0,0 -12.417,59.063 -59.231,59.063l-473.684,-0c-46.796,-0 -59.21,-59.063 -59.21,-59.063l-34.52,-788.407Zm513.404,97.47l-46.875,-0l-23.437,676.767l46.875,-0l23.437,-676.767Zm-300,676.767l-23.429,-676.767l-46.883,-0l23.43,676.767l46.882,-0Zm93.75,-676.767l0,676.767l46.875,-0l0,-676.767l-46.875,-0Z" style="fill:#fff;"/></g></svg>